<svg xmlns="http://www.w3.org/2000/svg" viewBox="0 0 800 500"><rect width="800" height="500" fill="#0f172a"/><g stroke="#fff" stroke-opacity=".05"><path d="M0 0V500"/><path d="M40 0V500"/><path d="M80 0V500"/><path d="M120 0V500"/><path d="M160 0V500"/><path d="M200 0V500"/><path d="M240 0V500"/><path d="M280 0V500"/><path d="M320 0V500"/><path d="M360 0V500"/><path d="M400 0V500"/><path d="M440 0V500"/><path d="M480 0V500"/><path d="M520 0V500"/><path d="M560 0V500"/><path d="M600 0V500"/><path d="M640 0V500"/><path d="M680 0V500"/><path d="M720 0V500"/><path d="M760 0V500"/><path d="M800 0V500"/><path d="M0 0H800"/><path d="M0 40H800"/><path d="M0 80H800"/><path d="M0 120H800"/><path d="M0 160H800"/><path d="M0 200H800"/><path d="M0 240H800"/><path d="M0 280H800"/><path d="M0 320H800"/><path d="M0 360H800"/><path d="M0 400H800"/><path d="M0 440H800"/><path d="M0 480H800"/></g><defs><linearGradient id="g" x1="0" y1="1" x2="1" y2="0"><stop offset="0" stop-color="#1a63a8"/><stop offset=".55" stop-color="#2f8fd8"/><stop offset="1" stop-color="#4ec3f2"/></linearGradient><radialGradient id="glow"><stop offset="0" stop-color="#2f8fd8" stop-opacity=".45"/><stop offset="1" stop-color="#2f8fd8" stop-opacity="0"/></radialGradient></defs><circle cx="560" cy="250" r="300" fill="url(#glow)"/><g fill="none" stroke-linecap="round"><path d="M110 390 C 260 120, 540 80, 700 170" stroke="url(#g)" stroke-width="4" stroke-dasharray="1 14"/><path d="M110 390 C 300 300, 520 300, 690 330" stroke="#334155" stroke-width="3" stroke-dasharray="1 12"/></g><circle cx="110" cy="390" r="12" fill="#4ec3f2"/><circle cx="110" cy="390" r="26" fill="none" stroke="#4ec3f2" stroke-opacity=".35" stroke-width="2"/><circle cx="700" cy="170" r="10" fill="#fff"/><circle cx="690" cy="330" r="8" fill="#64748b"/><g transform="translate(470 118) rotate(18)"><path d="M-30 0 L34 -4 L40 0 L34 4Z" fill="#fff"/><path d="M0 -2 L-14 -30 L-6 -30 L14 -2Z M0 2 L-14 30 L-6 30 L14 2Z" fill="#cbd5e1"/><path d="M-26 -1 L-34 -12 L-29 -12 L-20 -1Z M-26 1 L-34 12 L-29 12 L-20 1Z" fill="#cbd5e1"/></g></svg>